<svg width="256" height="256" viewBox="0 0 256 256" fill="none" xmlns="http://www.w3.org/2000/svg">
  <rect width="256" height="256" rx="60" fill="url(#paint0_linear)"/>
  <path d="M68 84C68 75.1634 75.1634 68 84 68H180V196H84C75.1634 196 68 188.837 68 180V84Z" fill="white"/>
  <path d="M96 100H152" stroke="url(#paint0_linear)" stroke-width="12" stroke-linecap="round"/>
  <path d="M96 132H168" stroke="url(#paint0_linear)" stroke-width="12" stroke-linecap="round"/>
  <path d="M96 164H140" stroke="url(#paint0_linear)" stroke-width="12" stroke-linecap="round"/>
  <path d="M180 68V196C188.837 196 196 188.837 196 180V84C196 75.1634 188.837 68 180 68Z" fill="#E2E8F0"/>
  <rect x="180" y="80" width="16" height="12" fill="#CBD5E1"/>
  <rect x="180" y="104" width="16" height="12" fill="#CBD5E1"/>
  <rect x="180" y="128" width="16" height="12" fill="#CBD5E1"/>
  <rect x="180" y="152" width="16" height="12" fill="#CBD5E1"/>
  <defs>
    <linearGradient id="paint0_linear" x1="0" y1="0" x2="256" y2="256" gradientUnits="userSpaceOnUse">
      <stop stop-color="#4F46E5"/>
      <stop offset="1" stop-color="#8B5CF6"/>
    </linearGradient>
  </defs>
</svg>